<mxfile host="65bd71144e">
    <diagram name="Page-1" id="8NoAi405iV9w-lXr4pfd">
        <mxGraphModel dx="823" dy="458" grid="1" gridSize="10" guides="1" tooltips="1" connect="1" arrows="1" fold="1" page="1" pageScale="1" pageWidth="850" pageHeight="1100" background="none" math="0" shadow="0">
            <root>
                <mxCell id="0"/>
                <mxCell id="1" parent="0"/>
                <mxCell id="57" value="" style="group" vertex="1" connectable="0" parent="1">
                    <mxGeometry x="2" y="90" width="820" height="500" as="geometry"/>
                </mxCell>
                <mxCell id="44" value="" style="ellipse;whiteSpace=wrap;html=1;fontSize=10;fillColor=#4D4D4D;fontColor=#ffffff;strokeColor=#1A7633;movable=0;resizable=0;rotatable=0;deletable=0;editable=0;connectable=0;" parent="57" vertex="1">
                    <mxGeometry width="820" height="500" as="geometry"/>
                </mxCell>
                <mxCell id="23" value="&lt;font color=&quot;#ffffff&quot; style=&quot;font-size: 10px;&quot;&gt;VM-2 - server MediaWiki-1&lt;/font&gt;" style="text;strokeColor=none;align=center;fillColor=none;html=1;verticalAlign=middle;whiteSpace=wrap;rounded=0;" parent="57" vertex="1">
                    <mxGeometry x="478" y="182" width="75" height="30" as="geometry"/>
                </mxCell>
                <mxCell id="20" value="" style="sketch=0;html=1;aspect=fixed;strokeColor=none;shadow=0;align=center;verticalAlign=top;fillColor=#3B8DF1;shape=mxgraph.gcp2.cloud_server" parent="57" vertex="1">
                    <mxGeometry x="490.5" y="136.5" width="50" height="44.5" as="geometry"/>
                </mxCell>
                <mxCell id="58" value="" style="group" vertex="1" connectable="0" parent="57">
                    <mxGeometry x="478" y="300" width="75" height="74.5" as="geometry"/>
                </mxCell>
                <mxCell id="22" value="" style="sketch=0;html=1;aspect=fixed;strokeColor=none;shadow=0;align=center;verticalAlign=top;fillColor=#3B8DF1;shape=mxgraph.gcp2.cloud_server" parent="58" vertex="1">
                    <mxGeometry x="12.5" width="50" height="44.5" as="geometry"/>
                </mxCell>
                <mxCell id="54" value="&lt;font color=&quot;#ffffff&quot; style=&quot;font-size: 10px;&quot;&gt;VM-4 - server MediaWiki-2&lt;/font&gt;" style="text;strokeColor=none;align=center;fillColor=none;html=1;verticalAlign=middle;whiteSpace=wrap;rounded=0;" parent="58" vertex="1">
                    <mxGeometry y="44.5" width="75" height="30" as="geometry"/>
                </mxCell>
                <mxCell id="59" value="" style="group" vertex="1" connectable="0" parent="57">
                    <mxGeometry x="478" y="220" width="75" height="70" as="geometry"/>
                </mxCell>
                <mxCell id="53" value="&lt;font color=&quot;#ffffff&quot; style=&quot;font-size: 10px;&quot;&gt;VM-3 - server MediaWiki-2&lt;/font&gt;" style="text;strokeColor=none;align=center;fillColor=none;html=1;verticalAlign=middle;whiteSpace=wrap;rounded=0;" parent="59" vertex="1">
                    <mxGeometry y="40" width="75" height="30" as="geometry"/>
                </mxCell>
                <mxCell id="21" value="" style="sketch=0;html=1;aspect=fixed;strokeColor=none;shadow=0;align=center;verticalAlign=top;fillColor=#3B8DF1;shape=mxgraph.gcp2.cloud_server" parent="59" vertex="1">
                    <mxGeometry x="12.5" width="50" height="40" as="geometry"/>
                </mxCell>
                <mxCell id="43" style="edgeStyle=none;html=1;exitX=0.415;exitY=-0.023;exitDx=0;exitDy=0;startArrow=classic;startFill=1;exitPerimeter=0;entryX=0.542;entryY=1.033;entryDx=0;entryDy=0;entryPerimeter=0;" parent="57" source="33" target="32" edge="1">
                    <mxGeometry relative="1" as="geometry">
                        <mxPoint x="719.9999999999999" y="269.9965" as="sourcePoint"/>
                        <mxPoint x="845.756" y="139.42399999999992" as="targetPoint"/>
                    </mxGeometry>
                </mxCell>
                <mxCell id="40" style="edgeStyle=none;html=1;exitX=0.91;exitY=0.456;exitDx=0;exitDy=0;startArrow=classic;startFill=1;exitPerimeter=0;entryX=-0.025;entryY=0.557;entryDx=0;entryDy=0;entryPerimeter=0;" parent="57" source="21" target="32" edge="1">
                    <mxGeometry relative="1" as="geometry">
                        <mxPoint x="565.45" y="246.96000000000004" as="sourcePoint"/>
                        <mxPoint x="618.442" y="237.34400000000005" as="targetPoint"/>
                    </mxGeometry>
                </mxCell>
                <mxCell id="36" style="edgeStyle=none;html=1;exitX=0.938;exitY=0.357;exitDx=0;exitDy=0;startArrow=classic;startFill=1;exitPerimeter=0;entryX=0.004;entryY=0.05;entryDx=0;entryDy=0;entryPerimeter=0;" parent="57" source="20" target="32" edge="1">
                    <mxGeometry relative="1" as="geometry">
                        <mxPoint x="559" y="162.87" as="sourcePoint"/>
                        <mxPoint x="616.1859999999999" y="206.17600000000004" as="targetPoint"/>
                    </mxGeometry>
                </mxCell>
                <mxCell id="41" style="edgeStyle=none;html=1;exitX=0.967;exitY=0.397;exitDx=0;exitDy=0;startArrow=classic;startFill=1;exitPerimeter=0;entryX=-0.034;entryY=1.029;entryDx=0;entryDy=0;entryPerimeter=0;" parent="57" source="22" target="32" edge="1">
                    <mxGeometry relative="1" as="geometry">
                        <mxPoint x="570.5999999999999" y="259.96000000000004" as="sourcePoint"/>
                        <mxPoint x="618.106" y="261.34400000000005" as="targetPoint"/>
                    </mxGeometry>
                </mxCell>
                <mxCell id="61" value="" style="group" vertex="1" connectable="0" parent="57">
                    <mxGeometry x="605.75" y="100" width="75" height="94" as="geometry"/>
                </mxCell>
                <mxCell id="32" value="" style="aspect=fixed;html=1;points=[];align=center;image;fontSize=12;image=img/lib/azure2/databases/Azure_Database_PostgreSQL_Server.svg;" parent="61" vertex="1">
                    <mxGeometry x="13.5" y="30" width="48" height="64" as="geometry"/>
                </mxCell>
                <mxCell id="34" value="&lt;font color=&quot;#ffffff&quot; style=&quot;font-size: 10px;&quot;&gt;VM-5 - Primary PostgreSQL&lt;/font&gt;" style="text;strokeColor=none;align=center;fillColor=none;html=1;verticalAlign=middle;whiteSpace=wrap;rounded=0;" parent="61" vertex="1">
                    <mxGeometry width="75" height="30" as="geometry"/>
                </mxCell>
                <mxCell id="60" value="" style="group" vertex="1" connectable="0" parent="57">
                    <mxGeometry x="587.25" y="310" width="93.5" height="94" as="geometry"/>
                </mxCell>
                <mxCell id="33" value="" style="aspect=fixed;html=1;points=[];align=center;image;fontSize=12;image=img/lib/azure2/databases/Azure_Database_PostgreSQL_Server.svg;" parent="60" vertex="1">
                    <mxGeometry x="22.75" width="48" height="64" as="geometry"/>
                </mxCell>
                <mxCell id="35" value="&lt;span style=&quot;font-size: 10px;&quot;&gt;&lt;font color=&quot;#ffffff&quot;&gt;VM-6 - Standby PostgreSQL&lt;/font&gt;&lt;/span&gt;" style="text;strokeColor=none;align=center;fillColor=none;html=1;verticalAlign=middle;whiteSpace=wrap;rounded=0;" parent="60" vertex="1">
                    <mxGeometry y="64" width="93.5" height="30" as="geometry"/>
                </mxCell>
                <mxCell id="50" value="" style="verticalLabelPosition=bottom;html=1;verticalAlign=top;align=center;strokeColor=none;fillColor=#00BEF2;shape=mxgraph.azure.vhd;pointerEvents=1;" parent="57" vertex="1">
                    <mxGeometry x="728" y="240" width="40" height="50" as="geometry"/>
                </mxCell>
                <mxCell id="51" style="edgeStyle=none;html=1;exitX=1.014;exitY=0.518;exitDx=0;exitDy=0;startArrow=classic;startFill=1;exitPerimeter=0;entryX=0;entryY=0.5;entryDx=0;entryDy=0;entryPerimeter=0;" parent="57" source="33" target="50" edge="1">
                    <mxGeometry relative="1" as="geometry">
                        <mxPoint x="719.9200000000001" y="251.52800000000002" as="sourcePoint"/>
                        <mxPoint x="720.2660000000001" y="203.86199999999997" as="targetPoint"/>
                    </mxGeometry>
                </mxCell>
                <mxCell id="69" value="&lt;font style=&quot;font-size: 8px;&quot; color=&quot;#ffffff&quot;&gt;Асинхронный Streaming Replication&lt;/font&gt;" style="text;strokeColor=none;align=center;fillColor=none;html=1;verticalAlign=middle;whiteSpace=wrap;rounded=0;rotation=0;" vertex="1" parent="57">
                    <mxGeometry x="638" y="212" width="83" height="53.5" as="geometry"/>
                </mxCell>
                <mxCell id="52" value="&lt;span style=&quot;font-size: 10px;&quot;&gt;&lt;font color=&quot;#ffffff&quot;&gt;HDD-1 - PostgreSQL_dump&amp;nbsp;&lt;/font&gt;&lt;/span&gt;" style="text;strokeColor=none;align=center;fillColor=none;html=1;verticalAlign=middle;whiteSpace=wrap;rounded=0;" parent="57" vertex="1">
                    <mxGeometry x="708" y="290" width="93.5" height="30" as="geometry"/>
                </mxCell>
                <mxCell id="11" style="edgeStyle=none;html=1;startArrow=classic;startFill=1;entryX=0;entryY=0.5;entryDx=0;entryDy=0;" parent="1" source="4" target="9" edge="1">
                    <mxGeometry relative="1" as="geometry">
                        <mxPoint x="275" y="335.47500000000014" as="targetPoint"/>
                    </mxGeometry>
                </mxCell>
                <mxCell id="4" value="&lt;font color=&quot;#ffffff&quot;&gt;devices&lt;/font&gt;" style="sketch=0;outlineConnect=0;fontColor=#ffffff;strokeColor=#3700CC;fillColor=#6a00ff;dashed=0;verticalLabelPosition=bottom;verticalAlign=top;align=center;html=1;fontSize=12;fontStyle=0;shape=mxgraph.aws4.illustration_devices;pointerEvents=1;aspect=fixed;" parent="1" vertex="1">
                    <mxGeometry x="135" y="300" width="100" height="70" as="geometry"/>
                </mxCell>
                <mxCell id="12" style="edgeStyle=none;html=1;startArrow=classic;startFill=1;entryX=0;entryY=0.25;entryDx=0;entryDy=0;" parent="1" source="5" target="9" edge="1">
                    <mxGeometry relative="1" as="geometry">
                        <mxPoint x="277.1500000000001" y="315.2025000000001" as="targetPoint"/>
                    </mxGeometry>
                </mxCell>
                <mxCell id="5" value="&lt;font color=&quot;#ffffff&quot;&gt;devices&lt;/font&gt;" style="sketch=0;outlineConnect=0;fontColor=#ffffff;strokeColor=#3700CC;fillColor=#6a00ff;dashed=0;verticalLabelPosition=bottom;verticalAlign=top;align=center;html=1;fontSize=12;fontStyle=0;shape=mxgraph.aws4.illustration_devices;pointerEvents=1;aspect=fixed;" parent="1" vertex="1">
                    <mxGeometry x="135" y="200" width="100" height="70" as="geometry"/>
                </mxCell>
                <mxCell id="10" style="edgeStyle=none;html=1;entryX=0;entryY=0.75;entryDx=0;entryDy=0;startArrow=classic;startFill=1;" parent="1" source="6" target="9" edge="1">
                    <mxGeometry relative="1" as="geometry">
                        <mxPoint x="277.1500000000001" y="353.94550000000004" as="targetPoint"/>
                    </mxGeometry>
                </mxCell>
                <mxCell id="6" value="&lt;font color=&quot;#ffffff&quot;&gt;devices&lt;/font&gt;" style="sketch=0;outlineConnect=0;dashed=0;verticalLabelPosition=bottom;verticalAlign=top;align=center;html=1;fontSize=12;fontStyle=0;shape=mxgraph.aws4.illustration_devices;pointerEvents=1;aspect=fixed;fillColor=#6a00ff;strokeColor=#3700CC;fontColor=#ffffff;" parent="1" vertex="1">
                    <mxGeometry x="135" y="410" width="100" height="70" as="geometry"/>
                </mxCell>
                <mxCell id="7" value="&lt;font color=&quot;#ffffff&quot;&gt;users&lt;/font&gt;" style="sketch=0;outlineConnect=0;fontColor=#ffffff;strokeColor=#3700CC;fillColor=#6a00ff;dashed=0;verticalLabelPosition=bottom;verticalAlign=top;align=center;html=1;fontSize=12;fontStyle=0;aspect=fixed;shape=mxgraph.aws4.illustration_users;pointerEvents=1;points=[];" parent="1" vertex="1">
                    <mxGeometry x="65" y="318.25" width="60" height="60" as="geometry"/>
                </mxCell>
                <mxCell id="31" style="edgeStyle=none;html=1;entryX=0.014;entryY=0.588;entryDx=0;entryDy=0;entryPerimeter=0;startArrow=classic;startFill=1;" parent="1" source="9" target="14" edge="1">
                    <mxGeometry relative="1" as="geometry"/>
                </mxCell>
                <mxCell id="9" value="" style="aspect=fixed;perimeter=ellipsePerimeter;html=1;align=center;shadow=0;dashed=0;spacingTop=3;image;image=img/lib/active_directory/internet_globe.svg;" parent="1" vertex="1">
                    <mxGeometry x="270" y="319" width="32" height="32" as="geometry"/>
                </mxCell>
                <mxCell id="28" style="edgeStyle=none;html=1;exitX=1;exitY=1;exitDx=0;exitDy=0;entryX=0.085;entryY=0.352;entryDx=0;entryDy=0;entryPerimeter=0;startArrow=classic;startFill=1;" parent="1" source="14" target="22" edge="1">
                    <mxGeometry relative="1" as="geometry"/>
                </mxCell>
                <mxCell id="29" style="edgeStyle=none;html=1;exitX=1;exitY=0.5;exitDx=0;exitDy=0;entryX=0.03;entryY=0.579;entryDx=0;entryDy=0;entryPerimeter=0;startArrow=classic;startFill=1;" parent="1" source="14" target="21" edge="1">
                    <mxGeometry relative="1" as="geometry">
                        <mxPoint x="462" y="323.37" as="sourcePoint"/>
                        <mxPoint x="527.95" y="375.29960000000005" as="targetPoint"/>
                    </mxGeometry>
                </mxCell>
                <mxCell id="30" style="edgeStyle=none;html=1;exitX=1;exitY=0;exitDx=0;exitDy=0;entryX=0.059;entryY=0.486;entryDx=0;entryDy=0;entryPerimeter=0;startArrow=classic;startFill=1;" parent="1" source="14" target="20" edge="1">
                    <mxGeometry relative="1" as="geometry">
                        <mxPoint x="452" y="289.5300000000001" as="sourcePoint"/>
                        <mxPoint x="533.5" y="265.29549999999995" as="targetPoint"/>
                    </mxGeometry>
                </mxCell>
                <mxCell id="55" value="&lt;font color=&quot;#ffffff&quot; style=&quot;font-size: 10px;&quot;&gt;Internet&lt;/font&gt;" style="text;strokeColor=none;align=center;fillColor=none;html=1;verticalAlign=middle;whiteSpace=wrap;rounded=0;" parent="1" vertex="1">
                    <mxGeometry x="248.5" y="348" width="75" height="30" as="geometry"/>
                </mxCell>
                <mxCell id="62" value="" style="group" vertex="1" connectable="0" parent="1">
                    <mxGeometry x="327" y="302" width="110" height="118" as="geometry"/>
                </mxCell>
                <mxCell id="14" value="" style="strokeColor=#dddddd;shadow=1;strokeWidth=1;rounded=1;absoluteArcSize=1;arcSize=2;" parent="62" vertex="1">
                    <mxGeometry x="5" width="100" height="56" as="geometry"/>
                </mxCell>
                <mxCell id="15" value="Network&#10;Load&#10;Balancer" style="sketch=0;dashed=0;connectable=0;html=1;fillColor=#757575;strokeColor=none;shape=mxgraph.gcp2.network_load_balancer;part=1;labelPosition=right;verticalLabelPosition=middle;align=left;verticalAlign=middle;spacingLeft=5;fontSize=12;" parent="14" vertex="1">
                    <mxGeometry y="0.5" width="32" height="32" relative="1" as="geometry">
                        <mxPoint x="5" y="-16" as="offset"/>
                    </mxGeometry>
                </mxCell>
                <mxCell id="18" value="&lt;font color=&quot;#ffffff&quot;&gt;VM-1 - Nginx proxy server, Zabbix, Terraform, Ansible&lt;/font&gt;" style="text;strokeColor=none;align=center;fillColor=none;html=1;verticalAlign=middle;whiteSpace=wrap;rounded=0;" parent="62" vertex="1">
                    <mxGeometry y="48" width="110" height="70" as="geometry"/>
                </mxCell>
            </root>
        </mxGraphModel>
    </diagram>
</mxfile>